<?xml version="1.0" standalone="no"?>
<!DOCTYPE svg PUBLIC "-//W3C//DTD SVG 1.1//EN" "http://www.w3.org/Graphics/SVG/1.1/DTD/svg11.dtd" >
<svg xmlns="http://www.w3.org/2000/svg" xmlns:xlink="http://www.w3.org/1999/xlink" version="1.1">
<metadata></metadata>
<defs>
<font id="bank_gothicmedium" horiz-adv-x="1024" >
<font-face units-per-em="2048" ascent="1638" descent="-410" />
<missing-glyph horiz-adv-x="792" />
<glyph horiz-adv-x="0" />
<glyph horiz-adv-x="682" />
<glyph unicode=" "  horiz-adv-x="792" />
<glyph unicode="&#x09;" horiz-adv-x="792" />
<glyph unicode="&#xa0;" horiz-adv-x="792" />
<glyph unicode="!" horiz-adv-x="786" d="M231 70v153q0 49 15.5 59.5t70.5 10.5h146h35q31 0 41 -15.5t10 -54.5v-153q0 -49 -15.5 -59.5t-70.5 -10.5h-146h-34q-31 0 -41.5 15.5t-10.5 54.5zM233 1057h316l-76 -627h-164z" />
<glyph unicode="&#x22;" horiz-adv-x="614" d="M90 881v555h139v-555h-139zM385 881v555h139v-555h-139z" />
<glyph unicode="#" horiz-adv-x="1574" d="M88 449l53 145h310l92 264h-330l51 146h332l162 454h166l-162 -454h256l164 454h164l-160 -454h301l-51 -146h-303l-93 -264h322l-51 -145h-322l-162 -453h-165l161 453h-258l-162 -453h-165l159 453h-309zM616 594h261l92 264h-260z" />
<glyph unicode="$" horiz-adv-x="1583" d="M199 221v45l204 35v-141h318v280h-219q-151 0 -206.5 51.5t-55.5 198.5v117q0 147 55.5 198.5t206.5 51.5h219v209h170v-209h211q139 0 200.5 -46t61.5 -161v-47l-193 -43v145h-280v-280h229q152 0 208 -51.5t56 -198.5v-125q0 -147 -56 -198.5t-208 -51.5h-229v-266 h-170v266h-260q-142 0 -202 47t-60 174zM426 625h295v280h-295v-280zM891 160h305v280h-305v-280z" />
<glyph unicode="%" horiz-adv-x="1636" d="M90 778q0 132 92 222t224 90t222.5 -90.5t90.5 -221.5q0 -129 -93.5 -223t-219.5 -94q-128 0 -222 94t-94 223zM229 774q0 -71 51 -122.5t123 -51.5q73 0 125 51t52 123t-52.5 124t-124.5 52q-70 0 -122 -52.5t-52 -123.5zM305 -33l891 1123h133l-891 -1123h-133z M915 283q0 132 91 222.5t223 90.5t223.5 -91t91.5 -222q0 -128 -94 -222t-221 -94q-128 0 -221 93.5t-93 222.5zM1055 281q0 -71 51 -123t123 -52q73 0 124.5 51.5t51.5 123.5t-52 124t-124 52q-70 0 -122 -52.5t-52 -123.5z" />
<glyph unicode="&#x26;" horiz-adv-x="1687" d="M184 250v69q0 77 27.5 114.5t103.5 82.5l215 129q-90 75 -90 160v59q0 110 61 151.5t201 41.5h213q147 0 205 -44t58 -169v-64l-191 -32v141h-346v-76l498 -414l245 205l140 -121l-244 -202l334 -281h-322l-174 147l-94 -84q-48 -41 -87 -52t-112 -11h-376 q-152 0 -208.5 51.5t-56.5 198.5zM391 184h490l98 84l-317 264l-271 -167v-181z" />
<glyph unicode="'" horiz-adv-x="317" d="M90 881v555h139v-555h-139z" />
<glyph unicode="(" horiz-adv-x="677" d="M170 528q0 298 176 570h219q-198 -296 -198 -570q0 -273 198 -569h-219q-176 272 -176 569z" />
<glyph unicode=")" horiz-adv-x="677" d="M113 -41q198 296 198 569q0 274 -198 570h219q178 -275 178 -570q0 -294 -178 -569h-219z" />
<glyph unicode="*" d="M176 758l45 139l252 -121l-29 281h136l-31 -281l252 121l47 -139l-275 -53l193 -205l-119 -88l-135 245l-135 -245l-121 88l193 205z" />
<glyph unicode="+" horiz-adv-x="1705" d="M254 541v139h528v541h142v-541h528v-139h-528v-541h-142v541h-528z" />
<glyph unicode="," horiz-adv-x="677" d="M172 -272l174 311h-82h-35q-29 0 -39 17.5t-10 58.5v127q0 54 14 64.5t70 10.5h148h34q29 0 39.5 -17.5t10.5 -57.5v-211l-203 -303h-121z" />
<glyph unicode="-" horiz-adv-x="675" d="M98 440v211h477v-211h-477z" />
<glyph unicode="." horiz-adv-x="677" d="M180 76v166q0 54 14.5 64.5t71.5 10.5h146h37q29 0 39 -17t10 -58v-166q0 -54 -15 -65t-71 -11h-146h-37q-29 0 -39 17.5t-10 58.5z" />
<glyph unicode="/" horiz-adv-x="569" d="M-49 -33l532 1123h135l-536 -1123h-131z" />
<glyph unicode="0" horiz-adv-x="1583" d="M193 250v557q0 146 50.5 198t190.5 52h715q140 0 191 -52t51 -198v-557q0 -146 -51 -198t-191 -52h-715q-140 0 -190.5 52t-50.5 198zM414 190h755v687h-755v-687z" />
<glyph unicode="1" horiz-adv-x="1583" d="M500 856v141l448 68v-1065h-223v856h-225z" />
<glyph unicode="2" horiz-adv-x="1583" d="M233 0v96q0 61 23.5 100t110.5 93l731 450v138h-602v-218l-209 54v137q0 123 51.5 165t189.5 42h543q138 0 190 -42t52 -165v-68q0 -61 -15 -98.5t-40.5 -60t-81.5 -56.5l-621 -377h614v156l195 -55v-84q0 -123 -52 -165t-190 -42h-889z" />
<glyph unicode="3" horiz-adv-x="1583" d="M225 207v86l217 45v-148h570q61 0 81.5 19t20.5 76v77q0 57 -20.5 77t-81.5 20h-357v172h318q61 0 80.5 19t19.5 77v53q0 58 -19.5 77.5t-80.5 19.5h-522v-132l-209 39v66q0 123 51.5 165t189.5 42h572q138 0 189.5 -42t51.5 -165v-96q0 -94 -45 -138t-159 -63 q126 -12 185.5 -64t59.5 -151v-111q0 -126 -53.5 -176.5t-202.5 -50.5h-614q-138 0 -190 42t-52 165z" />
<glyph unicode="4" horiz-adv-x="1583" d="M166 233v177l792 659h232v-659h256v-177h-256v-245h-223v245h-801zM389 410h578v473z" />
<glyph unicode="5" horiz-adv-x="1583" d="M266 233q303 -55 557 -55q193 0 277 38t84 134q0 91 -82.5 127.5t-263.5 36.5q-245 0 -572 -43l60 586h913l-18 -180h-738l-24 -205q263 26 428 26q524 0 524 -358q0 -189 -140.5 -271.5t-441.5 -82.5q-330 0 -510 43z" />
<glyph unicode="6" horiz-adv-x="1583" d="M227 326v139q0 295 204.5 456.5t576.5 161.5q25 0 75 -4l146 -170h-68q-156 0 -263.5 -11.5t-197 -41t-144.5 -83t-85 -136.5q236 37 467 37q249 0 347.5 -57.5t98.5 -215.5v-143q0 -133 -88.5 -195.5t-273.5 -62.5h-447q-198 0 -273 69t-75 257zM453 416q0 -51 2 -81 t10 -59t21.5 -42.5t39 -25t60 -15t86.5 -3.5h295q112 0 152 27.5t40 99.5v58q0 77 -48.5 102t-184.5 25q-216 0 -469 -25q-4 -25 -4 -61z" />
<glyph unicode="7" horiz-adv-x="1583" d="M217 688v369h1174v-170l-553 -905h-269l570 895h-699v-228z" />
<glyph unicode="8" horiz-adv-x="1583" d="M197 227v111q0 96 55 147.5t170 63.5q-111 22 -157 67.5t-46 137.5v96q0 123 52 165t190 42h659q138 0 190 -42t52 -165v-96q0 -92 -45 -137.5t-156 -67.5q115 -12 170 -63.5t55 -147.5v-111q0 -126 -54.5 -176.5t-203.5 -50.5h-675q-149 0 -202.5 50.5t-53.5 176.5z M420 285q0 -58 19 -76.5t81 -18.5h541q61 0 80.5 19t19.5 76v77q0 58 -19.5 77.5t-80.5 19.5h-541q-61 0 -80.5 -19.5t-19.5 -77.5v-77zM442 727q0 -57 21 -76.5t82 -19.5h493q61 0 81 19.5t20 76.5v53q0 58 -20 77.5t-81 19.5h-493q-61 0 -82 -20t-21 -77v-53z" />
<glyph unicode="9" horiz-adv-x="1583" d="M219 657v142q0 133 88 195.5t273 62.5h446q198 0 273 -69t75 -257v-139q0 -295 -204 -456t-576 -161q-51 0 -76 2l-145 170h67q124 0 216 7t174 25t138.5 48.5t98.5 78.5t66 114q-224 -35 -467 -35q-249 0 -348 57t-99 215zM442 686q0 -80 49.5 -105.5t186.5 -25.5 q194 0 467 27q6 37 6 63q0 79 -5.5 118t-29 68t-66 37.5t-120.5 8.5h-293q-113 0 -154 -28.5t-41 -103.5v-59z" />
<glyph unicode=":" horiz-adv-x="677" d="M180 76v166q0 54 14.5 64.5t71.5 10.5h146h37q29 0 39 -17t10 -58v-166q0 -54 -15 -65t-71 -11h-146h-37q-29 0 -39 17.5t-10 58.5zM180 627v166q0 54 14.5 64.5t71.5 10.5h146h37q29 0 39 -17t10 -58v-166q0 -54 -15 -65t-71 -11h-146h-37q-29 0 -39 17.5t-10 58.5z" />
<glyph unicode=";" horiz-adv-x="677" d="M172 -272l174 311h-82h-35q-29 0 -39 17.5t-10 58.5v127q0 54 14 64.5t70 10.5h148h34q29 0 39.5 -17.5t10.5 -57.5v-211l-203 -303h-121zM180 627v166q0 54 14 64.5t70 10.5h148h34q29 0 39.5 -17.5t10.5 -57.5v-166q0 -54 -14 -65t-70 -11h-148h-35q-29 0 -39 17.5 t-10 58.5z" />
<glyph unicode="&#x3c;" horiz-adv-x="1705" d="M264 547v129l1178 483v-153l-969 -396l969 -393v-154z" />
<glyph unicode="=" horiz-adv-x="1705" d="M254 342v139h1198v-139h-1198zM254 739v140h1198v-140h-1198z" />
<glyph unicode="&#x3e;" horiz-adv-x="1705" d="M264 63v154l971 393l-971 396v153l1178 -483v-129z" />
<glyph unicode="?" horiz-adv-x="1355" d="M217 782v58q0 217 221 217h418q128 0 191 -48t63 -149v-168l-358 -209v-55h-211v147l354 216v92h-471v-133zM485 70v153q0 50 14.5 60t69.5 10h148h35q31 0 40 -15t9 -55v-153q0 -50 -14.5 -60t-69.5 -10h-148h-32q-31 0 -41.5 15.5t-10.5 54.5z" />
<glyph unicode="@" horiz-adv-x="2048" d="M106 522q0 335 203 582q145 177 350.5 269.5t456.5 92.5q166 0 312.5 -46t250.5 -126q129 -100 197 -231t68 -283q0 -175 -63 -315.5t-185 -235.5q-139 -112 -316 -112q-200 0 -200 157v19q-108 -174 -301 -174q-152 0 -233 85.5t-81 246.5q0 156 63.5 283t172.5 198.5 t241 71.5q170 0 242 -150l57 115h132l-146 -576q-8 -33 -8 -59q0 -94 100 -94q101 0 209 102q79 75 124.5 185.5t45.5 234.5q0 257 -189 419t-501 162q-266 0 -457 -114t-296 -299.5t-105 -409.5q0 -177 61.5 -307.5t192.5 -230.5q99 -75 234.5 -117.5t289.5 -42.5 q169 0 329 49t292 141l55 -82q-296 -223 -664 -223q-382 0 -628 187q-306 236 -306 628zM725 446q0 -106 48.5 -162.5t137.5 -56.5q96 0 173.5 68t105.5 180l59 236q-17 89 -68.5 136.5t-129.5 47.5q-90 0 -165 -59.5t-118 -163t-43 -226.5z" />
<glyph unicode="A" horiz-adv-x="1579" d="M68 0l598 1057h237l606 -1057h-276l-127 231h-670l-123 -231h-245zM541 422h463l-228 430z" />
<glyph unicode="B" horiz-adv-x="1626" d="M270 0v1057h906q123 0 180 -48t57 -157v-129q0 -76 -47 -121.5t-135 -56.5q92 -12 141 -65t49 -138v-135q0 -207 -311 -207h-840zM512 190h561q66 0 92.5 19.5t26.5 75.5v80q0 56 -26.5 75t-92.5 19h-561v-269zM512 633h561q60 0 86.5 16t26.5 60v100q0 44 -26.5 60 t-86.5 16h-561v-252z" />
<glyph unicode="C" horiz-adv-x="1640" d="M248 250v557q0 147 55.5 198.5t206.5 51.5h631q151 0 206.5 -51.5t55.5 -198.5v-100l-246 -39v200h-663v-669h663v227l246 -51v-125q0 -147 -55.5 -198.5t-206.5 -51.5h-631q-151 0 -206.5 51.5t-55.5 198.5z" />
<glyph unicode="D" horiz-adv-x="1734" d="M270 0v1057h680q293 0 448.5 -137t155.5 -385q0 -149 -61 -267t-172 -186q-133 -82 -434 -82h-617zM516 199h318q243 0 354.5 75t111.5 265q0 162 -87.5 245.5t-260.5 83.5h-436v-669z" />
<glyph unicode="E" horiz-adv-x="1546" d="M270 0v1057h1082v-180h-836v-236h488v-180h-488v-262h846v-199h-1092z" />
<glyph unicode="F" horiz-adv-x="1374" d="M270 0v1057h1069v-185h-823v-278h445v-193h-445v-401h-246z" />
<glyph unicode="G" horiz-adv-x="1751" d="M248 250v557q0 147 55.5 198.5t206.5 51.5h729q148 0 205 -50t57 -190v-24l-239 -43v118h-768v-669h768v235h-402v180h641v-364q0 -147 -55.5 -198.5t-206.5 -51.5h-729q-151 0 -206.5 51.5t-55.5 198.5z" />
<glyph unicode="H" horiz-adv-x="1802" d="M270 0v1057h246v-410h768v410h248v-1057h-248v455h-768v-455h-246z" />
<glyph unicode="I" horiz-adv-x="786" d="M270 0v1057h246v-1057h-246z" />
<glyph unicode="J" horiz-adv-x="1366" d="M162 250v219l248 47v-317h483v858h246v-807q0 -147 -55.5 -198.5t-206.5 -51.5h-453q-151 0 -206.5 51.5t-55.5 198.5z" />
<glyph unicode="K" horiz-adv-x="1626" d="M270 0v1057h248v-441l586 441h356l-700 -498l786 -559h-395l-633 465v-465h-248z" />
<glyph unicode="L" horiz-adv-x="1398" d="M270 0v1057h246v-858h793v-199h-1039z" />
<glyph unicode="M" horiz-adv-x="1896" d="M268 0v1057h199l498 -639l487 639h197v-1057h-228v653q0 31 9 113q-38 -78 -62 -111l-397 -528h-49l-398 530q-42 56 -63 109q6 -65 6 -113v-653h-199z" />
<glyph unicode="N" horiz-adv-x="1779" d="M268 0v1057h168l744 -623q70 -57 120 -115q-10 147 -10 183v555h221v-1057h-168l-776 653q-53 46 -88 86q10 -102 10 -168v-571h-221z" />
<glyph unicode="O" horiz-adv-x="1798" d="M248 250v557q0 147 55.5 198.5t206.5 51.5h778q151 0 206.5 -51.5t55.5 -198.5v-557q0 -147 -55.5 -198.5t-206.5 -51.5h-778q-151 0 -206.5 51.5t-55.5 198.5zM494 199h811v669h-811v-669z" />
<glyph unicode="P" horiz-adv-x="1521" d="M270 0v1057h906q123 0 180 -48t57 -157v-236q0 -109 -57 -156.5t-180 -47.5h-664v-412h-242zM512 594h553q61 0 86 17t25 67v113q0 50 -25 66.5t-86 16.5h-553v-280z" />
<glyph unicode="Q" horiz-adv-x="1798" d="M248 250v557q0 147 55.5 198.5t206.5 51.5h778q151 0 206.5 -51.5t55.5 -198.5v-557q0 -147 -55.5 -198.5t-206.5 -51.5h-114l133 -272h-244l-119 272h-434q-151 0 -206.5 51.5t-55.5 198.5zM494 199h362l-98 229l178 72l143 -301h226v669h-811v-669z" />
<glyph unicode="R" horiz-adv-x="1642" d="M270 0v1057h906q123 0 180 -48t57 -157v-248q0 -109 -57 -157t-180 -48h-140l488 -399h-353l-426 399h-233v-399h-242zM512 580h553q61 0 86 17t25 67v127q0 50 -25 66.5t-86 16.5h-553v-294z" />
<glyph unicode="S" horiz-adv-x="1656" d="M236 250v29l217 45v-125h747v241h-659q-151 0 -206.5 51.5t-55.5 198.5v117q0 147 55.5 198.5t206.5 51.5h600q145 0 203.5 -49.5t58.5 -182.5v-22l-217 -51v120h-692v-227h659q152 0 208 -51.5t56 -198.5v-145q0 -147 -56 -198.5t-208 -51.5h-653q-152 0 -208 51.5 t-56 198.5z" />
<glyph unicode="T" horiz-adv-x="1280" d="M31 868v189h1218v-189h-487v-868h-246v868h-485z" />
<glyph unicode="U" horiz-adv-x="1732" d="M270 250v807h246v-858h701v858h245v-807q0 -147 -55.5 -198.5t-206.5 -51.5h-668q-151 0 -206.5 51.5t-55.5 198.5z" />
<glyph unicode="V" horiz-adv-x="1394" d="M16 1057h281l428 -764l408 764h245l-581 -1057h-170z" />
<glyph unicode="W" horiz-adv-x="1896" d="M80 1057h254l268 -709l281 709h172l286 -709l256 709h220l-408 -1057h-166l-291 731l-295 -731h-170z" />
<glyph unicode="X" horiz-adv-x="1470" d="M100 1057h326l338 -359l321 359h283l-461 -486l570 -571h-334l-387 410l-357 -410h-290l501 543z" />
<glyph unicode="Y" horiz-adv-x="1376" d="M16 1057h328l363 -406l364 406h289l-547 -578v-479h-248v473z" />
<glyph unicode="Z" horiz-adv-x="1396" d="M125 0v115l739 753h-665v189h1061v-105l-750 -753h750v-199h-1135z" />
<glyph unicode="[" horiz-adv-x="677" d="M193 -33v1123h452v-146h-256v-825h256v-152h-452z" />
<glyph unicode="\" horiz-adv-x="569" d="M-49 1090h135l532 -1123h-131z" />
<glyph unicode="]" horiz-adv-x="677" d="M33 -33v152h256v825h-256v146h452v-1123h-452z" />
<glyph unicode="^" horiz-adv-x="2048" d="M420 901l510 557h186l510 -557h-180l-422 420l-424 -420h-180z" />
<glyph unicode="_" d="M0 -340h1024v-143h-1024v143z" />
<glyph unicode="`" d="M233 1325h222l204 -346h-131z" />
<glyph unicode="a" horiz-adv-x="1323" d="M61 0l514 866h203l522 -866h-237l-109 190h-573l-109 -190h-211zM471 348h397l-202 361z" />
<glyph unicode="b" horiz-adv-x="1345" d="M193 0v866h778q106 0 155.5 -38.5t49.5 -129.5v-104q0 -60 -38.5 -98t-109.5 -50q73 -12 113.5 -55.5t40.5 -109.5v-111q0 -170 -269 -170h-720zM401 156h473q57 0 80 16t23 61v66q0 46 -23.5 62t-79.5 16h-473v-221zM401 520h473q50 0 72.5 13t22.5 49v82q0 37 -21.5 49 t-73.5 12h-473v-205z" />
<glyph unicode="c" horiz-adv-x="1318" d="M172 205v457q0 120 47.5 162t177.5 42h541q131 0 179 -41.5t48 -162.5v-84l-213 -31v160h-569v-541h569v184l213 -43v-102q0 -120 -48 -162.5t-179 -42.5h-541q-131 0 -178 42.5t-47 162.5z" />
<glyph unicode="d" horiz-adv-x="1421" d="M193 0v866h583q253 0 386.5 -113t133.5 -317q0 -436 -573 -436h-530zM406 162h272q105 0 176.5 13t124 44.5t76.5 87t24 139.5q0 134 -75 199.5t-226 65.5h-372v-549z" />
<glyph unicode="e" horiz-adv-x="1245" d="M193 0v866h929v-153h-716v-189h417v-149h-417v-213h727v-162h-940z" />
<glyph unicode="f" horiz-adv-x="1126" d="M193 0v866h919v-155h-706v-226h380v-161h-380v-324h-213z" />
<glyph unicode="g" horiz-adv-x="1417" d="M172 205v457q0 121 47.5 162.5t177.5 41.5h627q127 0 176 -40t49 -154v-23l-207 -35v93h-659v-541h659v184h-344v154h551v-299q0 -120 -47.5 -162.5t-177.5 -42.5h-627q-130 0 -177.5 42.5t-47.5 162.5z" />
<glyph unicode="h" horiz-adv-x="1470" d="M193 0v866h213v-329h659v329h211v-866h-211v365h-659v-365h-213z" />
<glyph unicode="i" horiz-adv-x="595" d="M193 0v866h210v-866h-210z" />
<glyph unicode="j" horiz-adv-x="1146" d="M113 205v180l213 39v-262h413v704h213v-661q0 -120 -48 -162.5t-179 -42.5h-385q-131 0 -179 42.5t-48 162.5z" />
<glyph unicode="k" horiz-adv-x="1269" d="M193 0v866h213v-350l505 350h306l-599 -401l666 -465h-334l-544 391v-391h-213z" />
<glyph unicode="l" horiz-adv-x="1130" d="M193 0v866h213v-704h679v-162h-892z" />
<glyph unicode="m" horiz-adv-x="1570" d="M193 0v866h169l424 -514l422 514h170v-866h-196v596l-387 -492h-41l-392 478v-582h-169z" />
<glyph unicode="n" horiz-adv-x="1458" d="M193 0v866h145l735 -575v575h191v-866h-146l-733 584v-584h-192z" />
<glyph unicode="o" horiz-adv-x="1464" d="M172 205v457q0 122 47.5 163t177.5 41h670q130 0 177.5 -41t47.5 -163v-457q0 -121 -47.5 -163t-177.5 -42h-670q-131 0 -178 41.5t-47 163.5zM383 166h698v541h-698v-541z" />
<glyph unicode="p" horiz-adv-x="1286" d="M193 0v866h780q106 0 154.5 -38.5t48.5 -129.5v-192q0 -90 -48.5 -129t-154.5 -39h-572v-338h-208zM401 487h482q50 0 73 14.5t23 55.5v90q0 41 -23 55.5t-73 14.5h-482v-230z" />
<glyph unicode="q" horiz-adv-x="1464" d="M172 207v455q0 123 47.5 163.5t177.5 40.5h670q130 0 177.5 -40t47.5 -164v-455q0 -120 -48 -162.5t-177 -42.5h-102l116 -223h-211l-98 223h-375q-130 0 -177.5 42.5t-47.5 162.5zM383 166h317l-90 186l152 58l119 -244h200v541h-698v-541z" />
<glyph unicode="r" horiz-adv-x="1331" d="M193 0v866h780q106 0 154.5 -39t48.5 -129v-204q0 -88 -48.5 -127t-154.5 -39h-119l412 -328h-303l-363 328h-199v-328h-208zM401 477h482q50 0 73 14.5t23 55.5v100q0 41 -23 55.5t-73 14.5h-482v-240z" />
<glyph unicode="s" horiz-adv-x="1357" d="M170 205v24l188 35v-102h637v198h-561q-130 0 -178.5 42t-48.5 163v97q0 121 48.5 162.5t178.5 41.5h514q125 0 176.5 -39t51.5 -149v-21l-183 -39v93h-596v-183h564q131 0 178 -41.5t47 -162.5v-119q0 -120 -47.5 -162.5t-177.5 -42.5h-564q-131 0 -179 42.5t-48 162.5z " />
<glyph unicode="t" horiz-adv-x="1208" d="M80 711v155h1048v-155h-419v-711h-211v711h-418z" />
<glyph unicode="u" horiz-adv-x="1411" d="M193 205v661h210v-704h603v704h213v-661q0 -120 -48.5 -162.5t-179.5 -42.5h-573q-130 0 -177.5 42.5t-47.5 162.5z" />
<glyph unicode="v" horiz-adv-x="1294" d="M74 866h239l367 -628l346 628h219l-502 -866h-145z" />
<glyph unicode="w" horiz-adv-x="1615" d="M74 866h221l227 -604l244 604h145l242 -604l223 604h191l-348 -866h-144l-250 612l-254 -612h-145z" />
<glyph unicode="x" horiz-adv-x="1306" d="M96 866h283l291 -280l274 280h244l-395 -397l487 -469h-289l-332 324l-305 -324h-250l428 444z" />
<glyph unicode="y" horiz-adv-x="1214" d="M47 866h285l309 -323l313 323h248l-471 -473v-393h-211v389z" />
<glyph unicode="z" horiz-adv-x="1261" d="M143 0v94l635 617h-571v155h913v-86l-647 -620h647v-160h-977z" />
<glyph unicode="{" d="M168 457v149q8 0 23 -1t22 -1q131 0 184.5 60.5t53.5 207.5v246q0 132 18.5 200.5t81.5 106.5q86 52 278 52h37v-150h-41q-125 0 -163.5 -46.5t-38.5 -182.5v-242q0 -150 -41 -222.5t-160 -103.5q121 -31 161 -102.5t40 -222.5v-242q0 -70 7.5 -110t29.5 -69t61.5 -39.5 t105.5 -10.5h39v-148h-43q-98 0 -162 10t-110 39q-63 38 -81.5 107t-18.5 201v245q0 147 -54 209t-186 62q-7 0 -21.5 -1t-21.5 -1z" />
<glyph unicode="|" d="M438 -483v2048h150v-2048h-150z" />
<glyph unicode="}" d="M160 -266h39q126 0 165 47.5t39 183.5v240q0 150 40.5 222t160.5 103q-119 31 -160 103.5t-41 222.5v242q0 135 -39 182t-165 47h-39v150h37q194 0 278 -52q63 -38 81.5 -106.5t18.5 -200.5v-246q0 -147 53.5 -207.5t184.5 -60.5q7 0 22 1t23 1v-149q-7 0 -22 1t-21 1 q-134 0 -187 -61.5t-53 -209.5v-245q0 -132 -18.5 -201t-81.5 -107q-46 -29 -110 -39t-162 -10h-43v148z" />
<glyph unicode="~" horiz-adv-x="1705" d="M178 451v155q212 144 387 144q118 0 291 -62q10 -4 56.5 -20.5t63 -21.5t51.5 -15t61.5 -13.5t54.5 -3.5q92 0 184 38.5t203 117.5v-156q-203 -141 -389 -141q-22 0 -43 2t-44.5 6.5t-39 8t-43 12.5t-38 12.5t-42.5 14.5t-39 14q-66 23 -99 33t-87.5 21t-102.5 11 q-88 0 -180 -38.5t-205 -118.5z" />
<glyph unicode="&#xa1;" horiz-adv-x="786" d="M231 0l78 627h162l78 -627h-318zM231 836v151q0 49 15.5 59.5t70.5 10.5h146h35q31 0 41 -15.5t10 -54.5v-151q0 -49 -15.5 -59.5t-70.5 -10.5h-146h-34q-31 0 -41.5 15.5t-10.5 54.5z" />
<glyph unicode="&#xa2;" horiz-adv-x="1583" d="M412 166v381q0 94 39.5 128t154.5 34h258l58 168h110l-57 -168q120 0 158 -28.5t38 -123.5v-92l-180 -29v111h-71l-134 -381h205v139l180 -43v-133q0 -73 -37.5 -101t-127.5 -28h-275l-72 -207h-110l72 207h-54q-89 0 -122 38t-33 128zM606 166h72l131 381h-203v-381z " />
<glyph unicode="&#xa3;" horiz-adv-x="1583" d="M213 465v162h215q-8 65 -8 135q0 156 78 225.5t250 69.5h358q138 0 209 -53t71 -152v-96l-206 -35v61q0 62 -34 83.5t-112 21.5h-233q-105 0 -140.5 -32t-35.5 -130q0 -51 8 -98h299v-162h-291q-3 -127 -35 -211q264 -72 475 -72q112 0 149.5 25t37.5 108v41l200 -37v-75 q0 -260 -340 -260q-249 0 -610 106q-68 -60 -135 -87.5t-150 -27.5h-18v211q124 10 176.5 61.5t52.5 160.5q0 4 -0.5 11.5t-1.5 21t-2 24.5h-227z" />
<glyph unicode="&#xa4;" horiz-adv-x="1241" d="M80 428l207 205q-84 106 -84 252q0 139 84 252l-207 206l82 80l205 -204q115 86 254 86q141 0 256 -86l204 204l82 -80l-205 -206q82 -110 82 -252q0 -143 -82 -252l205 -205l-82 -82l-204 205q-117 -86 -254 -86q-141 0 -256 86l-205 -205zM319 887q0 -126 89 -215.5 t215 -89.5t214.5 89.5t88.5 215.5q0 125 -88.5 214t-214.5 89t-215 -89t-89 -214z" />
<glyph unicode="&#xa5;" horiz-adv-x="1583" d="M129 1057h324l358 -416l356 416h287l-276 -295h223v-133h-346l-148 -158h494v-133h-494v-338h-227v338h-496v133h496l-148 158h-348v133h224z" />
<glyph unicode="&#xa6;" d="M438 -350v758h150v-758h-150zM438 674v758h150v-758h-150z" />
<glyph unicode="&#xa7;" d="M125 485q0 82 53.5 137t151.5 70q-115 72 -115 182q0 96 78.5 158t208.5 62q191 0 327 -121l-118 -105q-108 99 -203 99q-57 0 -90 -24t-33 -62q0 -42 39 -68t139 -65q73 -29 118.5 -49.5t92.5 -48t73 -54.5t42 -62.5t16 -78.5q0 -77 -56.5 -133t-156.5 -76 q59 -29 93 -82t34 -115q0 -98 -85 -165.5t-218 -67.5q-97 0 -192.5 37.5t-167.5 103.5l118 111q116 -113 240 -113q59 0 95 26.5t36 65.5q0 19 -8.5 34.5t-20 27t-38 25t-47.5 22.5t-62 26q-18 7 -27 11q-170 70 -243.5 132.5t-73.5 159.5zM270 539q0 -67 121 -133 q77 -42 151 -64.5t117 -22.5q47 0 75 22t28 56q0 65 -144 142q-75 39 -145.5 59t-110.5 20q-43 0 -67.5 -22.5t-24.5 -56.5z" />
<glyph unicode="&#xa8;" d="M240 1026v229h204v-229h-204zM580 1026v229h204v-229h-204z" />
<glyph unicode="&#xa9;" horiz-adv-x="1705" d="M117 727q0 147 56 281.5t163 242.5q103 103 235.5 158t280.5 55q309 0 524 -215q103 -103 159 -238t56 -284q0 -150 -55 -282t-158 -234q-109 -106 -245 -163.5t-281 -57.5q-146 0 -279 56.5t-239 162.5t-161.5 239t-55.5 279zM213 727q0 -126 49 -242.5t141 -208.5 q188 -188 451 -188q126 0 242.5 49t212.5 142q184 181 184 448q0 130 -47.5 247t-136.5 206q-188 188 -455 188q-264 0 -448 -184q-93 -93 -143 -211.5t-50 -245.5zM463 733q0 201 109.5 323t285.5 122q142 0 236.5 -75.5t105.5 -195.5h-147q-12 77 -65.5 118.5t-139.5 41.5 q-103 0 -164 -89t-61 -251q0 -158 62.5 -245t172.5 -87q82 0 137 46.5t68 129.5h145q-9 -131 -107 -211.5t-249 -80.5q-181 0 -285 119.5t-104 334.5z" />
<glyph unicode="&#xaa;" horiz-adv-x="872" d="M41 422l338 520h135l344 -520h-156l-71 115h-379l-72 -115h-139zM311 631h262l-133 217z" />
<glyph unicode="&#xab;" horiz-adv-x="1150" d="M127 434l242 301h182l-234 -301l234 -303h-182zM600 434l242 301h182l-233 -301l233 -303h-182z" />
<glyph unicode="&#xac;" horiz-adv-x="1705" d="M254 721v139h1198v-502h-137v363h-1061z" />
<glyph unicode="&#xad;" horiz-adv-x="675" d="M98 440v211h477v-211h-477z" />
<glyph unicode="&#xae;" horiz-adv-x="1705" d="M117 727q0 146 58 282.5t165 245.5q206 209 512 209q151 0 285.5 -56t240.5 -163q102 -104 157.5 -237.5t55.5 -280.5q0 -309 -215 -518q-109 -106 -244 -162.5t-280 -56.5q-147 0 -280.5 57t-239.5 164q-105 106 -160 238t-55 278zM213 727q0 -257 188 -448 q90 -92 206.5 -141.5t240.5 -49.5q265 0 459 188q90 87 138 202t48 243q0 275 -182 457q-187 190 -457 190q-267 0 -446 -182q-94 -95 -144.5 -214t-50.5 -245zM557 324v835h315q349 0 349 -229q0 -89 -50 -147.5t-141 -77.5l187 -381h-177l-170 356h-155v-356h-158z M715 780h133q110 0 160.5 30.5t50.5 102.5q0 76 -52 110t-163 34h-129v-277z" />
<glyph unicode="&#xaf;" d="M236 1067v147h552v-147h-552z" />
<glyph unicode="&#xb0;" horiz-adv-x="673" d="M49 1167q0 121 85 205t204 84t203 -84.5t84 -204.5q0 -118 -83.5 -202t-205.5 -84q-121 0 -204 83t-83 203zM143 1169q0 -82 56.5 -139t138.5 -57t137 57.5t55 138.5q0 80 -55.5 136.5t-136.5 56.5q-80 0 -137.5 -56t-57.5 -137z" />
<glyph unicode="&#xb1;" horiz-adv-x="1705" d="M254 29v141h1198v-141h-1198zM254 713v139h528v340h142v-340h528v-139h-528v-340h-142v340h-528z" />
<glyph unicode="&#xb2;" horiz-adv-x="1044" d="M154 422v57q0 37 15.5 60.5t72.5 56.5l483 270v82h-397v-131l-140 33v82q0 74 34.5 99.5t125.5 25.5h359q91 0 125 -25.5t34 -99.5v-41q0 -52 -18 -75.5t-72 -53.5l-409 -225h405v92l129 -33v-49q0 -75 -34 -100t-126 -25h-587z" />
<glyph unicode="&#xb3;" horiz-adv-x="1044" d="M150 547v51l143 27v-88h375q40 0 53.5 11t13.5 44v47q0 34 -13.5 45.5t-53.5 11.5h-236v105h211q40 0 53 11.5t13 45.5v33q0 34 -13 45.5t-53 11.5h-346v-80l-137 25v39q0 74 34 99.5t125 25.5h377q91 0 125.5 -25.5t34.5 -99.5v-58q0 -57 -30 -83t-105 -37 q84 -8 123 -38.5t39 -90.5v-66q0 -76 -35.5 -106.5t-134.5 -30.5h-406q-91 0 -124 25t-33 100z" />
<glyph unicode="&#xb4;" d="M365 979l204 346h222l-295 -346h-131z" />
<glyph unicode="&#xb5;" horiz-adv-x="1150" d="M-113 -428l318 1499h180l-129 -600q-14 -63 -14 -133q0 -99 52 -153t148 -54q135 0 211 96t121 308l115 536h178l-156 -731q-22 -108 -22 -133q0 -37 17 -52.5t55 -15.5q20 0 32 2l-30 -143q-49 -10 -109 -10q-64 0 -97 29.5t-52 99.5q-88 -131 -271 -131 q-82 0 -143 27.5t-113 88.5l-110 -530h-181z" />
<glyph unicode="&#xb6;" d="M66 1130q0 156 106.5 252.5t286.5 96.5h499v-86h-120v-1393h-111v1393h-178v-1393h-111v782q-172 7 -272 102t-100 246z" />
<glyph unicode="&#xb7;" horiz-adv-x="677" d="M172 528q0 70 48 118t118 48q71 0 119.5 -48t48.5 -118q0 -68 -50 -118t-118 -50q-67 0 -116.5 50t-49.5 118z" />
<glyph unicode="&#xb8;" d="M287 -315q165 -43 256 -43q108 0 108 75q0 42 -35 61t-108 19q-6 0 -20 -1t-21 -1v205h90v-94h16q236 0 236 -193q0 -90 -64 -140t-186 -50q-112 0 -272 43v119z" />
<glyph unicode="&#xb9;" horiz-adv-x="1044" d="M330 936v84l295 41v-639h-148v514h-147z" />
<glyph unicode="&#xba;" horiz-adv-x="966" d="M113 545v274q0 73 31.5 98t117.5 25h443q86 0 116.5 -25t30.5 -98v-274q0 -73 -30.5 -98t-116.5 -25h-443q-86 0 -117.5 25t-31.5 98zM252 522h461v324h-461v-324z" />
<glyph unicode="&#xbb;" horiz-adv-x="1150" d="M127 131l233 303l-233 301h182l242 -301l-242 -303h-182zM602 131l232 303l-232 301h180l242 -301l-242 -303h-180z" />
<glyph unicode="&#xbc;" horiz-adv-x="2336" d="M315 944v80l283 37v-596h-141v479h-142zM655 -33l893 1123h131l-891 -1123h-133zM1444 131v98l500 369h145v-369h162v-98h-162v-137h-141v137h-504zM1585 229h363v265z" />
<glyph unicode="&#xbd;" horiz-adv-x="2336" d="M315 944v80l283 37v-596h-141v479h-142zM655 -33l893 1123h131l-891 -1123h-133zM1487 0v53q0 18 2 28.5t10 24.5t25.5 27t46.5 29l461 252v78h-381v-123l-131 30v76q0 69 32.5 93t120.5 24h340q88 0 121 -24t33 -93v-37q0 -49 -17.5 -70.5t-68.5 -50.5l-391 -211h387v89 l123 -31v-47q0 -69 -33 -93t-121 -24h-559z" />
<glyph unicode="&#xbe;" horiz-adv-x="2336" d="M141 582v47l138 24v-82h358q38 0 51.5 11t13.5 43v43q0 32 -13 42.5t-52 10.5h-223v96h198q38 0 51 11.5t13 43.5v29q0 32 -13 43.5t-51 11.5h-327v-73l-133 20v37q0 69 32.5 93t120.5 24h359q88 0 120.5 -24t32.5 -93v-53q0 -52 -29 -77t-100 -36q79 -6 116.5 -35 t37.5 -86v-61q0 -71 -33.5 -99t-126.5 -28h-387q-88 0 -121 24t-33 93zM655 -33l893 1123h131l-891 -1123h-133zM1444 131v98l500 369h145v-369h162v-98h-162v-137h-141v137h-504zM1585 229h363v265z" />
<glyph unicode="&#xbf;" horiz-adv-x="1355" d="M217 199v166l358 208v56h209v-148l-354 -213v-92h473v131l205 -33v-57q0 -217 -221 -217h-418q-128 0 -190 49t-62 150zM524 836v151q0 49 15 59.5t71 10.5h146h35q31 0 41 -15.5t10 -54.5v-151q0 -49 -15 -59.5t-71 -10.5h-146h-35q-31 0 -41 15.5t-10 54.5z" />
<glyph unicode="&#xc0;" horiz-adv-x="1579" d="M68 0l598 1057h237l606 -1057h-276l-127 231h-670l-123 -231h-245zM512 1516h221l205 -347h-131zM541 422h463l-228 430z" />
<glyph unicode="&#xc1;" horiz-adv-x="1579" d="M68 0l598 1057h237l606 -1057h-276l-127 231h-670l-123 -231h-245zM541 422h463l-228 430zM643 1169l205 347h221l-295 -347h-131z" />
<glyph unicode="&#xc2;" horiz-adv-x="1579" d="M68 0l598 1057h237l606 -1057h-276l-127 231h-670l-123 -231h-245zM494 1167l188 349h217l188 -349h-131l-165 211l-168 -211h-129zM541 422h463l-228 430z" />
<glyph unicode="&#xc3;" horiz-adv-x="1579" d="M68 0l598 1057h237l606 -1057h-276l-127 231h-670l-123 -231h-245zM489 1204q40 219 193 219q38 0 84 -14l88 -25q24 -6 51 -6q31 0 54 19t32 55h101q-23 -117 -70.5 -171t-128.5 -54q-32 0 -70 10l-84 25q-38 10 -63 10q-65 0 -86 -68h-101zM541 422h463l-228 430z" />
<glyph unicode="&#xc4;" horiz-adv-x="1579" d="M68 0l598 1057h237l606 -1057h-276l-127 231h-670l-123 -231h-245zM518 1217v229h205v-229h-205zM541 422h463l-228 430zM858 1217v229h205v-229h-205z" />
<glyph unicode="&#xc5;" horiz-adv-x="1579" d="M68 0l598 1057h237l606 -1057h-276l-127 231h-670l-123 -231h-245zM526 1382q0 107 74.5 181.5t181.5 74.5q108 0 184 -74.5t76 -181.5q0 -108 -76 -183t-184 -75q-107 0 -181.5 74.5t-74.5 183.5zM541 422h463l-228 430zM657 1380q0 -54 36.5 -90.5t90.5 -36.5t90.5 37 t36.5 90q0 54 -36.5 91.5t-90.5 37.5t-90.5 -37.5t-36.5 -91.5z" />
<glyph unicode="&#xc6;" horiz-adv-x="2189" d="M35 0l883 1057h1079v-180h-684v-236h489v-180h-489v-262h694v-199h-934v262h-543l-215 -262h-280zM672 455h401v442h-37z" />
<glyph unicode="&#xc7;" horiz-adv-x="1640" d="M248 250v557q0 147 55.5 198.5t206.5 51.5h631q151 0 206.5 -51.5t55.5 -198.5v-100l-246 -39v200h-663v-669h663v227l246 -51v-125q0 -147 -55.5 -198.5t-206.5 -51.5h-631q-151 0 -206.5 51.5t-55.5 198.5zM596 -315q165 -43 256 -43q109 0 109 75q0 42 -35.5 61 t-108.5 19q-6 0 -20 -1t-21 -1v205h90v-94h17q119 0 177 -47.5t58 -145.5q0 -90 -64 -140t-186 -50q-112 0 -272 43v119z" />
<glyph unicode="&#xc8;" horiz-adv-x="1546" d="M270 0v1057h1082v-180h-836v-236h488v-180h-488v-262h846v-199h-1092zM539 1516h221l205 -347h-131z" />
<glyph unicode="&#xc9;" horiz-adv-x="1546" d="M270 0v1057h1082v-180h-836v-236h488v-180h-488v-262h846v-199h-1092zM670 1169l204 347h222l-295 -347h-131z" />
<glyph unicode="&#xca;" horiz-adv-x="1546" d="M270 0v1057h1082v-180h-836v-236h488v-180h-488v-262h846v-199h-1092zM520 1167l189 349h217l188 -349h-131l-166 211l-168 -211h-129z" />
<glyph unicode="&#xcb;" horiz-adv-x="1546" d="M270 0v1057h1082v-180h-836v-236h488v-180h-488v-262h846v-199h-1092zM545 1217v229h205v-229h-205zM885 1217v229h205v-229h-205z" />
<glyph unicode="&#xcc;" horiz-adv-x="786" d="M115 1516h221l205 -347h-131zM270 0v1057h246v-1057h-246z" />
<glyph unicode="&#xcd;" horiz-adv-x="786" d="M246 1169l205 347h221l-295 -347h-131zM270 0v1057h246v-1057h-246z" />
<glyph unicode="&#xce;" horiz-adv-x="786" d="M96 1167l189 349h217l188 -349h-131l-166 211l-168 -211h-129zM270 0v1057h246v-1057h-246z" />
<glyph unicode="&#xcf;" horiz-adv-x="786" d="M121 1217v229h205v-229h-205zM270 0v1057h246v-1057h-246zM461 1217v229h205v-229h-205z" />
<glyph unicode="&#xd0;" horiz-adv-x="1734" d="M74 457v194h196v406h680q293 0 448.5 -137t155.5 -385q0 -149 -61 -267t-172 -186q-133 -82 -434 -82h-617v457h-196zM516 199h318q243 0 354.5 75t111.5 265q0 162 -87.5 245.5t-260.5 83.5h-436v-217h393v-194h-393v-258z" />
<glyph unicode="&#xd1;" horiz-adv-x="1779" d="M268 0v1057h168l744 -623q70 -57 120 -115q-10 147 -10 183v555h221v-1057h-168l-776 653q-53 46 -88 86q10 -102 10 -168v-571h-221zM590 1204q40 219 192 219q38 0 84 -14l88 -25q24 -6 52 -6q31 0 54 19t32 55h100q-23 -117 -70.5 -171t-128.5 -54q-31 0 -69 10 l-84 25q-38 10 -64 10q-65 0 -86 -68h-100z" />
<glyph unicode="&#xd2;" horiz-adv-x="1798" d="M248 250v557q0 147 55.5 198.5t206.5 51.5h778q151 0 206.5 -51.5t55.5 -198.5v-557q0 -147 -55.5 -198.5t-206.5 -51.5h-778q-151 0 -206.5 51.5t-55.5 198.5zM494 199h811v669h-811v-669zM621 1516h221l205 -347h-132z" />
<glyph unicode="&#xd3;" horiz-adv-x="1798" d="M248 250v557q0 147 55.5 198.5t206.5 51.5h778q151 0 206.5 -51.5t55.5 -198.5v-557q0 -147 -55.5 -198.5t-206.5 -51.5h-778q-151 0 -206.5 51.5t-55.5 198.5zM494 199h811v669h-811v-669zM752 1169l204 347h222l-295 -347h-131z" />
<glyph unicode="&#xd4;" horiz-adv-x="1798" d="M248 250v557q0 147 55.5 198.5t206.5 51.5h778q151 0 206.5 -51.5t55.5 -198.5v-557q0 -147 -55.5 -198.5t-206.5 -51.5h-778q-151 0 -206.5 51.5t-55.5 198.5zM494 199h811v669h-811v-669zM602 1167l189 349h217l188 -349h-131l-166 211l-168 -211h-129z" />
<glyph unicode="&#xd5;" horiz-adv-x="1798" d="M248 250v557q0 147 55.5 198.5t206.5 51.5h778q151 0 206.5 -51.5t55.5 -198.5v-557q0 -147 -55.5 -198.5t-206.5 -51.5h-778q-151 0 -206.5 51.5t-55.5 198.5zM494 199h811v669h-811v-669zM598 1204q40 219 193 219q37 0 83 -14l89 -25q24 -6 51 -6q31 0 54 19t32 55 h100q-23 -117 -70.5 -171t-128.5 -54q-31 0 -69 10l-84 25q-38 10 -64 10q-65 0 -86 -68h-100z" />
<glyph unicode="&#xd6;" horiz-adv-x="1798" d="M248 250v557q0 147 55.5 198.5t206.5 51.5h778q151 0 206.5 -51.5t55.5 -198.5v-557q0 -147 -55.5 -198.5t-206.5 -51.5h-778q-151 0 -206.5 51.5t-55.5 198.5zM494 199h811v669h-811v-669zM627 1217v229h204v-229h-204zM967 1217v229h204v-229h-204z" />
<glyph unicode="&#xd7;" horiz-adv-x="1705" d="M293 141l469 469l-469 469l98 99l469 -469l469 469l98 -99l-469 -469l469 -469l-98 -96l-469 467l-469 -467z" />
<glyph unicode="&#xd8;" horiz-adv-x="1798" d="M244 -262l184 266q-100 7 -140 64t-40 182v557q0 147 55.5 198.5t206.5 51.5h653l189 262h202l-186 -264q103 -9 142.5 -66t39.5 -182v-557q0 -147 -55.5 -198.5t-206.5 -51.5h-657l-185 -262h-202zM494 199h98l465 669h-563v-669zM741 199h564v669h-97z" />
<glyph unicode="&#xd9;" horiz-adv-x="1732" d="M270 250v807h246v-858h701v858h245v-807q0 -147 -55.5 -198.5t-206.5 -51.5h-668q-151 0 -206.5 51.5t-55.5 198.5zM588 1516h221l205 -347h-131z" />
<glyph unicode="&#xda;" horiz-adv-x="1732" d="M270 250v807h246v-858h701v858h245v-807q0 -147 -55.5 -198.5t-206.5 -51.5h-668q-151 0 -206.5 51.5t-55.5 198.5zM719 1169l205 347h221l-295 -347h-131z" />
<glyph unicode="&#xdb;" horiz-adv-x="1732" d="M270 250v807h246v-858h701v858h245v-807q0 -147 -55.5 -198.5t-206.5 -51.5h-668q-151 0 -206.5 51.5t-55.5 198.5zM569 1167l189 349h217l188 -349h-131l-166 211l-168 -211h-129z" />
<glyph unicode="&#xdc;" horiz-adv-x="1732" d="M270 250v807h246v-858h701v858h245v-807q0 -147 -55.5 -198.5t-206.5 -51.5h-668q-151 0 -206.5 51.5t-55.5 198.5zM594 1217v229h205v-229h-205zM934 1217v229h205v-229h-205z" />
<glyph unicode="&#xdd;" horiz-adv-x="1376" d="M16 1057h328l363 -406l364 406h289l-547 -578v-479h-248v473zM541 1169l204 347h222l-295 -347h-131z" />
<glyph unicode="&#xde;" horiz-adv-x="1521" d="M270 0v1057h242v-187h664q123 0 180 -47.5t57 -156.5v-236q0 -109 -57 -157t-180 -48h-664v-225h-242zM512 408h553q61 0 86 17t25 67v112q0 50 -25 67t-86 17h-553v-280z" />
<glyph unicode="&#xdf;" horiz-adv-x="2715" d="M170 205v24l188 35v-102h637v198h-561q-130 0 -178.5 42t-48.5 163v97q0 121 48.5 162.5t178.5 41.5h514q125 0 176.5 -39t51.5 -149v-21l-183 -39v93h-596v-183h564q131 0 178 -41.5t47 -162.5v-119q0 -120 -47.5 -162.5t-177.5 -42.5h-564q-131 0 -179 42.5t-48 162.5z M1528 205v24l188 35v-102h637v198h-561q-130 0 -178.5 42t-48.5 163v97q0 121 48.5 162.5t178.5 41.5h514q125 0 176 -39t51 -149v-21l-182 -39v93h-596v-183h563q131 0 178.5 -41.5t47.5 -162.5v-119q0 -120 -48 -162.5t-178 -42.5h-563q-131 0 -179 42.5t-48 162.5z" />
<glyph unicode="&#xe0;" horiz-adv-x="1323" d="M61 0l514 866h203l522 -866h-237l-109 190h-573l-109 -190h-211zM383 1325h221l205 -346h-131zM471 348h397l-202 361z" />
<glyph unicode="&#xe1;" horiz-adv-x="1323" d="M61 0l514 866h203l522 -866h-237l-109 190h-573l-109 -190h-211zM471 348h397l-202 361zM514 979l205 346h221l-295 -346h-131z" />
<glyph unicode="&#xe2;" horiz-adv-x="1323" d="M61 0l514 866h203l522 -866h-237l-109 190h-573l-109 -190h-211zM365 977l188 348h217l188 -348h-131l-165 211l-168 -211h-129zM471 348h397l-202 361z" />
<glyph unicode="&#xe3;" horiz-adv-x="1323" d="M61 0l514 866h203l522 -866h-237l-109 190h-573l-109 -190h-211zM360 1014q40 219 193 219q38 0 84 -14l88 -25q24 -6 51 -6q31 0 54 19t32 55h101q-24 -117 -71 -171.5t-128 -54.5q-28 0 -70 11l-84 24q-38 10 -63 10q-65 0 -86 -67h-101zM471 348h397l-202 361z" />
<glyph unicode="&#xe4;" horiz-adv-x="1323" d="M61 0l514 866h203l522 -866h-237l-109 190h-573l-109 -190h-211zM389 1026v229h205v-229h-205zM471 348h397l-202 361zM729 1026v229h205v-229h-205z" />
<glyph unicode="&#xe5;" horiz-adv-x="1323" d="M61 0l514 866h203l522 -866h-237l-109 190h-573l-109 -190h-211zM406 1217q0 107 74.5 182.5t181.5 75.5t182.5 -75.5t75.5 -182.5q0 -109 -75 -184t-183 -75q-107 0 -181.5 75t-74.5 184zM471 348h397l-202 361zM535 1217q0 -54 37.5 -92t91.5 -38q53 0 90 38.5t37 91.5 q0 54 -36.5 90t-90.5 36t-91.5 -36t-37.5 -90z" />
<glyph unicode="&#xe6;" horiz-adv-x="1839" d="M31 0l760 866h927v-153h-588v-189h420v-149h-420v-211h596v-164h-796v215h-473l-187 -215h-239zM575 373h355v362h-39z" />
<glyph unicode="&#xe7;" horiz-adv-x="1318" d="M172 205v457q0 120 47.5 162t177.5 42h541q131 0 179 -41.5t48 -162.5v-84l-213 -31v160h-569v-541h569v184l213 -43v-102q0 -120 -48 -162.5t-179 -42.5h-541q-131 0 -178 42.5t-47 162.5zM440 -315q165 -43 256 -43q109 0 109 75q0 42 -35 61t-108 19q-6 0 -20 -1 t-21 -1v205h90v-94h16q236 0 236 -193q0 -90 -64 -140t-186 -50q-113 0 -273 43v119z" />
<glyph unicode="&#xe8;" horiz-adv-x="1245" d="M193 0v866h929v-153h-716v-189h417v-149h-417v-213h727v-162h-940zM377 1325h221l205 -346h-131z" />
<glyph unicode="&#xe9;" horiz-adv-x="1245" d="M193 0v866h929v-153h-716v-189h417v-149h-417v-213h727v-162h-940zM508 979l205 346h221l-295 -346h-131z" />
<glyph unicode="&#xea;" horiz-adv-x="1245" d="M193 0v866h929v-153h-716v-189h417v-149h-417v-213h727v-162h-940zM358 977l189 348h217l188 -348h-131l-166 211l-168 -211h-129z" />
<glyph unicode="&#xeb;" horiz-adv-x="1245" d="M193 0v866h929v-153h-716v-189h417v-149h-417v-213h727v-162h-940zM383 1026v229h205v-229h-205zM723 1026v229h205v-229h-205z" />
<glyph unicode="&#xec;" horiz-adv-x="595" d="M20 1325h222l204 -346h-131zM193 0v866h210v-866h-210z" />
<glyph unicode="&#xed;" horiz-adv-x="595" d="M152 979l204 346h222l-295 -346h-131zM193 0v866h210v-866h-210z" />
<glyph unicode="&#xee;" horiz-adv-x="595" d="M2 977l188 348h218l188 -348h-131l-166 211l-168 -211h-129zM193 0v866h210v-866h-210z" />
<glyph unicode="&#xef;" horiz-adv-x="595" d="M27 1026v229h204v-229h-204zM193 0v866h210v-866h-210zM367 1026v229h204v-229h-204z" />
<glyph unicode="&#xf1;" horiz-adv-x="1458" d="M193 0v866h145l735 -575v575h191v-866h-146l-733 584v-584h-192zM428 1014q40 219 193 219q38 0 84 -14l88 -25q24 -6 51 -6q31 0 54 19t32 55h100q-24 -117 -71 -171.5t-128 -54.5q-27 0 -69 11l-84 24q-38 10 -64 10q-65 0 -86 -67h-100z" />
<glyph unicode="&#xf2;" horiz-adv-x="1464" d="M172 205v457q0 122 47.5 163t177.5 41h670q130 0 177.5 -41t47.5 -163v-457q0 -121 -47.5 -163t-177.5 -42h-670q-131 0 -178 41.5t-47 163.5zM383 166h698v541h-698v-541zM455 1325h221l205 -346h-131z" />
<glyph unicode="&#xf3;" horiz-adv-x="1464" d="M172 205v457q0 122 47.5 163t177.5 41h670q130 0 177.5 -41t47.5 -163v-457q0 -121 -47.5 -163t-177.5 -42h-670q-131 0 -178 41.5t-47 163.5zM383 166h698v541h-698v-541zM586 979l205 346h221l-295 -346h-131z" />
<glyph unicode="&#xf4;" horiz-adv-x="1464" d="M172 205v457q0 122 47.5 163t177.5 41h670q130 0 177.5 -41t47.5 -163v-457q0 -121 -47.5 -163t-177.5 -42h-670q-131 0 -178 41.5t-47 163.5zM383 166h698v541h-698v-541zM436 977l189 348h217l188 -348h-131l-166 211l-168 -211h-129z" />
<glyph unicode="&#xf5;" horiz-adv-x="1464" d="M172 205v457q0 122 47.5 163t177.5 41h670q130 0 177.5 -41t47.5 -163v-457q0 -121 -47.5 -163t-177.5 -42h-670q-131 0 -178 41.5t-47 163.5zM383 166h698v541h-698v-541zM432 1014q40 219 193 219q38 0 84 -14l88 -25q24 -6 51 -6q31 0 54 19t32 55h100 q-24 -117 -70.5 -171.5t-127.5 -54.5q-28 0 -70 11l-84 24q-38 10 -64 10q-65 0 -86 -67h-100z" />
<glyph unicode="&#xf6;" horiz-adv-x="1464" d="M172 205v457q0 122 47.5 163t177.5 41h670q130 0 177.5 -41t47.5 -163v-457q0 -121 -47.5 -163t-177.5 -42h-670q-131 0 -178 41.5t-47 163.5zM383 166h698v541h-698v-541zM461 1026v229h205v-229h-205zM801 1026v229h205v-229h-205z" />
<glyph unicode="&#xf7;" horiz-adv-x="1705" d="M254 541v139h1198v-139h-1198zM729 242q0 52 37 88.5t88 36.5t88 -36.5t37 -88.5q0 -51 -36.5 -88t-88.5 -37q-54 0 -89.5 36t-35.5 89zM729 979q0 52 37 89.5t88 37.5t88 -37.5t37 -89.5q0 -51 -36.5 -88t-88.5 -37t-88.5 36t-36.5 89z" />
<glyph unicode="&#xf8;" horiz-adv-x="1464" d="M172 -215l160 219q-86 6 -121 52.5t-35 148.5v457q0 121 47.5 162.5t177.5 41.5h562l161 215h174l-159 -217q89 -7 123 -53.5t34 -148.5v-457q0 -120 -47 -162.5t-178 -42.5h-565l-158 -215h-176zM383 166h92l391 541h-483v-541zM602 166h481v541h-90z" />
<glyph unicode="&#xf9;" horiz-adv-x="1411" d="M193 205v661h210v-704h603v704h213v-661q0 -120 -48.5 -162.5t-179.5 -42.5h-573q-130 0 -177.5 42.5t-47.5 162.5zM428 1325h221l205 -346h-131z" />
<glyph unicode="&#xfa;" horiz-adv-x="1411" d="M193 205v661h210v-704h603v704h213v-661q0 -120 -48.5 -162.5t-179.5 -42.5h-573q-130 0 -177.5 42.5t-47.5 162.5zM559 979l205 346h221l-295 -346h-131z" />
<glyph unicode="&#xfb;" horiz-adv-x="1411" d="M193 205v661h210v-704h603v704h213v-661q0 -120 -48.5 -162.5t-179.5 -42.5h-573q-130 0 -177.5 42.5t-47.5 162.5zM410 977l188 348h217l189 -348h-132l-165 211l-168 -211h-129z" />
<glyph unicode="&#xfc;" horiz-adv-x="1411" d="M193 205v661h210v-704h603v704h213v-661q0 -120 -48.5 -162.5t-179.5 -42.5h-573q-130 0 -177.5 42.5t-47.5 162.5zM434 1026v229h205v-229h-205zM774 1026v229h205v-229h-205z" />
<glyph unicode="&#xfd;" horiz-adv-x="1214" d="M47 866h285l309 -323l313 323h248l-471 -473v-393h-211v389zM461 979l205 346h221l-295 -346h-131z" />
<glyph unicode="&#xff;" horiz-adv-x="1214" d="M47 866h285l309 -323l313 323h248l-471 -473v-393h-211v389zM336 1026v229h205v-229h-205zM676 1026v229h205v-229h-205z" />
<glyph unicode="&#x152;" horiz-adv-x="2263" d="M248 250v557q0 147 55.5 198.5t206.5 51.5h1561v-180h-682v-236h487v-180h-487v-262h692v-199h-1571q-151 0 -206.5 51.5t-55.5 198.5zM494 199h655v678h-655v-678z" />
<glyph unicode="&#x153;" horiz-adv-x="1857" d="M172 205v457q0 121 47 162.5t178 41.5h1344v-153h-588v-189h420v-149h-420v-211h596v-164h-1352q-131 0 -178 42t-47 163zM383 166h565v541h-565v-541z" />
<glyph unicode="&#x178;" horiz-adv-x="1376" d="M16 1057h328l363 -406l364 406h289l-547 -578v-479h-248v473zM416 1217v229h205v-229h-205zM756 1217v229h205v-229h-205z" />
<glyph unicode="&#x2c6;" d="M215 977l188 348h218l188 -348h-131l-166 211l-168 -211h-129z" />
<glyph unicode="&#x2dc;" d="M211 1014q40 219 192 219q38 0 84 -14l88 -25q24 -6 52 -6q31 0 54 19t32 55h100q-24 -117 -71 -171.5t-128 -54.5q-27 0 -69 11l-84 24q-38 10 -64 10q-65 0 -86 -67h-100z" />
<glyph unicode="&#x2000;" horiz-adv-x="819" />
<glyph unicode="&#x2001;" horiz-adv-x="1638" />
<glyph unicode="&#x2002;" horiz-adv-x="819" />
<glyph unicode="&#x2003;" horiz-adv-x="1638" />
<glyph unicode="&#x2004;" horiz-adv-x="546" />
<glyph unicode="&#x2005;" horiz-adv-x="409" />
<glyph unicode="&#x2006;" horiz-adv-x="273" />
<glyph unicode="&#x2007;" horiz-adv-x="273" />
<glyph unicode="&#x2008;" horiz-adv-x="204" />
<glyph unicode="&#x2009;" horiz-adv-x="327" />
<glyph unicode="&#x200a;" horiz-adv-x="91" />
<glyph unicode="&#x2010;" horiz-adv-x="675" d="M98 440v211h477v-211h-477z" />
<glyph unicode="&#x2011;" horiz-adv-x="675" d="M98 440v211h477v-211h-477z" />
<glyph unicode="&#x2012;" horiz-adv-x="675" d="M98 440v211h477v-211h-477z" />
<glyph unicode="&#x2013;" d="M0 473v143h1024v-143h-1024z" />
<glyph unicode="&#x2014;" horiz-adv-x="2048" d="M0 473v143h2048v-143h-2048z" />
<glyph unicode="&#x2018;" horiz-adv-x="677" d="M182 543v211l203 303h121l-174 -312h82h35q29 0 39 -17t10 -58v-127q0 -54 -14 -65t-70 -11h-148h-35q-29 0 -39 17.5t-10 58.5z" />
<glyph unicode="&#x2019;" horiz-adv-x="677" d="M172 467l174 311h-82h-35q-29 0 -39 17.5t-10 58.5v127q0 54 14 65t70 11h148h34q29 0 39.5 -17.5t10.5 -58.5v-211l-203 -303h-121z" />
<glyph unicode="&#x201a;" horiz-adv-x="677" d="M172 -272l174 311h-82h-35q-29 0 -39 17.5t-10 58.5v127q0 54 14 64.5t70 10.5h148h34q29 0 39.5 -17.5t10.5 -57.5v-211l-203 -303h-121z" />
<glyph unicode="&#x201c;" horiz-adv-x="1185" d="M182 543v211l203 303h121l-174 -312h82h35q29 0 39 -17t10 -58v-127q0 -54 -14 -65t-70 -11h-148h-35q-29 0 -39 17.5t-10 58.5zM688 543v211l203 303h123l-174 -312h80h36q29 0 39.5 -17.5t10.5 -57.5v-127q0 -54 -15 -65t-71 -11h-146h-35q-29 0 -40 18t-11 58z" />
<glyph unicode="&#x201d;" horiz-adv-x="1185" d="M172 467l174 311h-82h-35q-29 0 -39 17.5t-10 58.5v127q0 54 14 65t70 11h148h34q29 0 39.5 -17.5t10.5 -58.5v-211l-203 -303h-121zM678 467l174 311h-80h-35q-29 0 -40 18t-11 58v127q0 54 15 65t71 11h146h36q29 0 39.5 -17.5t10.5 -58.5v-211l-203 -303h-123z" />
<glyph unicode="&#x201e;" horiz-adv-x="1185" d="M172 -272l174 311h-82h-35q-29 0 -39 17.5t-10 58.5v127q0 54 14 64.5t70 10.5h148h34q29 0 39.5 -17.5t10.5 -57.5v-211l-203 -303h-121zM678 -272l174 311h-80h-35q-29 0 -40 18t-11 58v127q0 54 14.5 64.5t71.5 10.5h146h36q29 0 39.5 -17.5t10.5 -57.5v-211 l-203 -303h-123z" />
<glyph unicode="&#x2022;" horiz-adv-x="1208" d="M307 762q0 123 87 209t210 86q122 0 208.5 -86t86.5 -209q0 -122 -87 -209.5t-210 -87.5t-209 87t-86 210z" />
<glyph unicode="&#x2026;" horiz-adv-x="2048" d="M182 76v166q0 54 14.5 64.5t71.5 10.5h146h37q29 0 39 -17t10 -58v-166q0 -54 -15 -65t-71 -11h-146h-37q-29 0 -39 17.5t-10 58.5zM864 76v166q0 54 14.5 64.5t71.5 10.5h146h37q29 0 39 -17t10 -58v-166q0 -54 -15 -65t-71 -11h-146h-37q-29 0 -39 17.5t-10 58.5z M1548 76v166q0 54 14.5 64.5t71.5 10.5h146h37q29 0 39 -17t10 -58v-166q0 -54 -15 -65t-71 -11h-146h-37q-29 0 -39 17.5t-10 58.5z" />
<glyph unicode="&#x202f;" horiz-adv-x="327" />
<glyph unicode="&#x2039;" horiz-adv-x="677" d="M127 434l242 301h182l-234 -301l234 -303h-182z" />
<glyph unicode="&#x203a;" horiz-adv-x="677" d="M127 131l233 303l-233 301h182l242 -301l-242 -303h-182z" />
<glyph unicode="&#x205f;" horiz-adv-x="409" />
<glyph unicode="&#x2122;" horiz-adv-x="1705" d="M242 1378v80h452v-80h-172v-458h-108v458h-172zM813 920v538h150l151 -385l141 385h150v-538h-98v444l-166 -444h-56l-174 444v-444h-98z" />
<glyph unicode="&#x25fc;" horiz-adv-x="870" d="M0 0v870h870v-870h-870z" />
<glyph unicode="&#xfb01;" horiz-adv-x="1722" d="M193 0v866h919v-155h-706v-226h380v-161h-380v-324h-213zM1319 0v866h211v-866h-211z" />
<glyph unicode="&#xfb02;" horiz-adv-x="2256" d="M193 0v866h919v-155h-706v-226h380v-161h-380v-324h-213zM1319 0v866h213v-704h680v-162h-893z" />
</font>
</defs>
</svg>
